HIERARCHY
ROOT Hips
{
  OFFSET -0.344974011 88.921463013 2.371773958
  CHANNELS 6 Xposition Yposition Zposition Zrotation Xrotation Yrotation
  JOINT Spine
  {
    OFFSET 6e-09 8.814247131 -2.080106735
    CHANNELS 3 Zrotation Xrotation Yrotation
    JOINT Spine1
    {
      OFFSET -2e-09 8.844139099 8.68e-07
      CHANNELS 3 Zrotation Xrotation Yrotation
      JOINT Spine2
      {
        OFFSET -3e-09 11.682266235 1.826e-06
        CHANNELS 3 Zrotation Xrotation Yrotation
        JOINT Spine3
        {
          OFFSET -3e-09 11.746704102 1.825e-06
          CHANNELS 3 Zrotation Xrotation Yrotation
          JOINT Neck
          {
            OFFSET -4e-09 17.65826416 2.737e-06
            CHANNELS 3 Zrotation Xrotation Yrotation
            JOINT Neck1
            {
              OFFSET -1e-09 5.1015172 9.24e-07
              CHANNELS 3 Zrotation Xrotation Yrotation
              JOINT Head
              {
                OFFSET -1e-09 5.1015172 9.24e-07
                CHANNELS 3 Zrotation Xrotation Yrotation
                JOINT HeadEnd
                {
                  OFFSET -3e-09 11.655090332 1.826e-06
                  CHANNELS 0 
                  End Site
                  {
                    OFFSET -1e-09 3.496527195 -5.2e-08
                  }
                }
              }
            }
          }
          JOINT RightShoulder
          {
            OFFSET -2.625389099 11.175216675 1.833e-06
            CHANNELS 3 Zrotation Xrotation Yrotation
            JOINT RightArm
            {
              OFFSET -10.43471241 2.82e-06 -0.0
              CHANNELS 3 Zrotation Xrotation Yrotation
              JOINT RightForeArm
              {
                OFFSET -29.628414154 9.113e-06 -0.0
                CHANNELS 3 Zrotation Xrotation Yrotation
                JOINT RightHand
                {
                  OFFSET -22.85760498 7.902e-06 -0.0
                  CHANNELS 3 Zrotation Xrotation Yrotation
                  JOINT RightHandThumb1
                  {
                    OFFSET -3.959563732 -2.867324591 2.944291115
                    CHANNELS 3 Zrotation Xrotation Yrotation
                    JOINT RightHandThumb2
                    {
                      OFFSET -2.451723814 -0.087599121 2.281788349
                      CHANNELS 3 Zrotation Xrotation Yrotation
                      JOINT RightHandThumb3
                      {
                        OFFSET -2.748901844 -0.098214075 2.558368206
                        CHANNELS 3 Zrotation Xrotation Yrotation
                        JOINT RightHandThumb4
                        {
                          OFFSET -2.30314064 -0.082279772 2.143490553
                          CHANNELS 0 
                          End Site
                          {
                            OFFSET -0.690942228 -0.024683932 0.643047214
                          }
                        }
                      }
                    }
                  }
                  JOINT RightHandIndex1
                  {
                    OFFSET -10.030891418 -0.086745605 2.34527874
                    CHANNELS 3 Zrotation Xrotation Yrotation
                    JOINT RightHandIndex2
                    {
                      OFFSET -4.061089516 7.19e-07 -2.8e-08
                      CHANNELS 3 Zrotation Xrotation Yrotation
                      JOINT RightHandIndex3
                      {
                        OFFSET -3.248871565 6.7e-07 -2.2e-08
                        CHANNELS 3 Zrotation Xrotation Yrotation
                        JOINT RightHandIndex4
                        {
                          OFFSET -2.639709473 6.34e-07 -1.8e-08
                          CHANNELS 0 
                          End Site
                          {
                            OFFSET -0.791912854 4.7e-08 -5e-09
                          }
                        }
                      }
                    }
                  }
                  JOINT RightHandMiddle1
                  {
                    OFFSET -9.502951622 0.104110569 0.006767958
                    CHANNELS 3 Zrotation Xrotation Yrotation
                    JOINT RightHandMiddle2
                    {
                      OFFSET -4.56872654 7.49e-07 -3.1e-08
                      CHANNELS 3 Zrotation Xrotation Yrotation
                      JOINT RightHandMiddle3
                      {
                        OFFSET -3.654984474 6.95e-07 -2.5e-08
                        CHANNELS 3 Zrotation Xrotation Yrotation
                        JOINT RightHandMiddle4
                        {
                          OFFSET -2.741234303 4.02e-07 -1.9e-08
                          CHANNELS 0 
                          End Site
                          {
                            OFFSET -0.82237035 4.9e-08 -6e-09
                          }
                        }
                      }
                    }
                  }
                  JOINT RightHandRing1
                  {
                    OFFSET -8.921708107 0.08674559 -2.267441988
                    CHANNELS 3 Zrotation Xrotation Yrotation
                    JOINT RightHandRing2
                    {
                      OFFSET -4.061089516 7.19e-07 -2.8e-08
                      CHANNELS 3 Zrotation Xrotation Yrotation
                      JOINT RightHandRing3
                      {
                        OFFSET -3.654984474 6.95e-07 -2.5e-08
                        CHANNELS 3 Zrotation Xrotation Yrotation
                        JOINT RightHandRing4
                        {
                          OFFSET -2.741234303 4.02e-07 -1.9e-08
                          CHANNELS 0 
                          End Site
                          {
                            OFFSET -0.82237035 4.9e-08 -6e-09
                          }
                        }
                      }
                    }
                  }
                  JOINT RightHandPinky1
                  {
                    OFFSET -7.976995468 -0.173507527 -4.467197895
                    CHANNELS 3 Zrotation Xrotation Yrotation
                    JOINT RightHandPinky2
                    {
                      OFFSET -3.350395441 6.77e-07 -2.3e-08
                      CHANNELS 3 Zrotation Xrotation Yrotation
                      JOINT RightHandPinky3
                      {
                        OFFSET -2.842766285 4.08e-07 -1.9e-08
                        CHANNELS 3 Zrotation Xrotation Yrotation
                        JOINT RightHandPinky4
                        {
                          OFFSET -2.639709473 6.34e-07 -1.8e-08
                          CHANNELS 0 
                          End Site
                          {
                            OFFSET -0.791912854 4.7e-08 -5e-09
                          }
                        }
                      }
                    }
                  }
                  JOINT RightForeArmEnd
                  {
                    OFFSET 0.0 0.0 0.0
                    CHANNELS 0 
                    End Site
                    {
                      OFFSET -0.0 -0.0 -0.0
                    }
                  }
                }
                JOINT RightArmEnd
                {
                  OFFSET 0.0 0.0 0.0
                  CHANNELS 0 
                  End Site
                  {
                    OFFSET -0.0 0.0 0.0
                  }
                }
              }
            }
          }
          JOINT LeftShoulder
          {
            OFFSET 2.625389099 11.175216675 1.833e-06
            CHANNELS 3 Zrotation Xrotation Yrotation
            JOINT LeftArm
            {
              OFFSET 10.813632965 3.841e-06 -0.0
              CHANNELS 3 Zrotation Xrotation Yrotation
              JOINT LeftForeArm
              {
                OFFSET 28.724773407 7.044e-06 -0.0
                CHANNELS 3 Zrotation Xrotation Yrotation
                JOINT LeftHand
                {
                  OFFSET 25.716161728 -0.644375384 -0.328870982
                  CHANNELS 3 Zrotation Xrotation Yrotation
                  JOINT LeftHandThumb1
                  {
                    OFFSET 3.959563971 -2.867324591 2.944291115
                    CHANNELS 3 Zrotation Xrotation Yrotation
                    JOINT LeftHandThumb2
                    {
                      OFFSET 2.451723814 -0.087599918 2.281788349
                      CHANNELS 3 Zrotation Xrotation Yrotation
                      JOINT LeftHandThumb3
                      {
                        OFFSET 2.748901606 -0.098215416 2.558368444
                        CHANNELS 3 Zrotation Xrotation Yrotation
                        JOINT LeftHandThumb4
                        {
                          OFFSET 2.268485546 -0.081050113 2.111252785
                          CHANNELS 0 
                          End Site
                          {
                            OFFSET 0.680545688 -0.024315035 0.633375883
                          }
                        }
                      }
                    }
                  }
                  JOINT LeftHandIndex1
                  {
                    OFFSET 10.030891418 -0.08674629 2.345279694
                    CHANNELS 3 Zrotation Xrotation Yrotation
                    JOINT LeftHandIndex2
                    {
                      OFFSET 4.061089039 1.203e-06 -2.1e-08
                      CHANNELS 3 Zrotation Xrotation Yrotation
                      JOINT LeftHandIndex3
                      {
                        OFFSET 3.248871326 1.058e-06 -1.7e-08
                        CHANNELS 3 Zrotation Xrotation Yrotation
                        JOINT LeftHandIndex4
                        {
                          OFFSET 2.639709234 9.49e-07 -1.4e-08
                          CHANNELS 0 
                          End Site
                          {
                            OFFSET 0.791912794 1.42e-07 -4e-09
                          }
                        }
                      }
                    }
                  }
                  JOINT LeftHandMiddle1
                  {
                    OFFSET 9.502952576 0.104095638 0.006767899
                    CHANNELS 3 Zrotation Xrotation Yrotation
                    JOINT LeftHandMiddle2
                    {
                      OFFSET 4.568726063 1.294e-06 -2.4e-08
                      CHANNELS 3 Zrotation Xrotation Yrotation
                      JOINT LeftHandMiddle3
                      {
                        OFFSET 3.654984236 1.13e-06 -1.9e-08
                        CHANNELS 3 Zrotation Xrotation Yrotation
                        JOINT LeftHandMiddle4
                        {
                          OFFSET 2.741234064 7.29e-07 -1.4e-08
                          CHANNELS 0 
                          End Site
                          {
                            OFFSET 0.822370231 1.47e-07 -4e-09
                          }
                        }
                      }
                    }
                  }
                  JOINT LeftHandRing1
                  {
                    OFFSET 8.9217062 0.086746342 -2.267441988
                    CHANNELS 3 Zrotation Xrotation Yrotation
                    JOINT LeftHandRing2
                    {
                      OFFSET 4.061089039 1.203e-06 -2.1e-08
                      CHANNELS 3 Zrotation Xrotation Yrotation
                      JOINT LeftHandRing3
                      {
                        OFFSET 3.654984236 1.13e-06 -1.9e-08
                        CHANNELS 3 Zrotation Xrotation Yrotation
                        JOINT LeftHandRing4
                        {
                          OFFSET 2.741234064 7.29e-07 -1.4e-08
                          CHANNELS 0 
                          End Site
                          {
                            OFFSET 0.822370231 1.47e-07 -4e-09
                          }
                        }
                      }
                    }
                  }
                  JOINT LeftHandPinky1
                  {
                    OFFSET 7.976996422 -0.173507497 -4.467197895
                    CHANNELS 3 Zrotation Xrotation Yrotation
                    JOINT LeftHandPinky2
                    {
                      OFFSET 3.350395203 1.076e-06 -1.8e-08
                      CHANNELS 3 Zrotation Xrotation Yrotation
                      JOINT LeftHandPinky3
                      {
                        OFFSET 2.842766047 7.47e-07 -1.5e-08
                        CHANNELS 3 Zrotation Xrotation Yrotation
                        JOINT LeftHandPinky4
                        {
                          OFFSET 2.639709234 9.49e-07 -1.4e-08
                          CHANNELS 0 
                          End Site
                          {
                            OFFSET 0.791912794 1.42e-07 -4e-09
                          }
                        }
                      }
                    }
                  }
                  JOINT LeftForeArmEnd
                  {
                    OFFSET 0.0 0.0 0.0
                    CHANNELS 0 
                    End Site
                    {
                      OFFSET 0.0 -0.0 -0.0
                    }
                  }
                }
                JOINT LeftArmEnd
                {
                  OFFSET 0.0 0.0 0.0
                  CHANNELS 0 
                  End Site
                  {
                    OFFSET 0.0 -0.0 -0.0
                  }
                }
              }
            }
          }
        }
      }
    }
  }
  JOINT RightUpLeg
  {
    OFFSET -11.289940834 8e-09 -0.0
    CHANNELS 3 Zrotation Xrotation Yrotation
    JOINT RightLeg
    {
      OFFSET 9e-09 -38.200309753 -5.431e-06
      CHANNELS 3 Zrotation Xrotation Yrotation
      JOINT RightFoot
      {
        OFFSET 9e-09 -39.900840759 -5.405e-06
        CHANNELS 3 Zrotation Xrotation Yrotation
        JOINT RightToeBase
        {
          OFFSET -0.0 5.458e-06 15.261638641
          CHANNELS 3 Zrotation Xrotation Yrotation
          JOINT RightToeBaseEnd
          {
            OFFSET -0.0 3.477e-06 7.370706558
            CHANNELS 0 
            End Site
            {
              OFFSET -0.0 1.186e-06 2.211212158
            }
          }
        }
        JOINT RightLegEnd
        {
          OFFSET 0.0 0.0 0.0
          CHANNELS 0 
          End Site
          {
            OFFSET -0.0 0.0 0.0
          }
        }
      }
      JOINT RightUpLegEnd
      {
        OFFSET 0.0 0.0 0.0
        CHANNELS 0 
        End Site
        {
          OFFSET 0.0 -0.0 0.0
        }
      }
    }
  }
  JOINT LeftUpLeg
  {
    OFFSET 11.31566143 -7e-09 1e-09
    CHANNELS 3 Zrotation Xrotation Yrotation
    JOINT LeftLeg
    {
      OFFSET 9e-09 -38.200309753 -5.431e-06
      CHANNELS 3 Zrotation Xrotation Yrotation
      JOINT LeftFoot
      {
        OFFSET 9e-09 -39.900840759 -5.405e-06
        CHANNELS 3 Zrotation Xrotation Yrotation
        JOINT LeftToeBase
        {
          OFFSET -0.0 5.458e-06 15.261638641
          CHANNELS 3 Zrotation Xrotation Yrotation
          JOINT LeftToeBaseEnd
          {
            OFFSET -0.0 3.173e-06 7.53999424
            CHANNELS 0 
            End Site
            {
              OFFSET -0.0 8.09e-07 2.261998415
            }
          }
        }
        JOINT LeftLegEnd
        {
          OFFSET 0.0 0.0 0.0
          CHANNELS 0 
          End Site
          {
            OFFSET -0.0 0.0 0.0
          }
        }
      }
      JOINT LeftUpLegEnd
      {
        OFFSET 0.0 0.0 0.0
        CHANNELS 0 
        End Site
        {
          OFFSET 0.0 -0.0 0.0
        }
      }
    }
  }
}
MOTION
Frames: 4
Frame Time: 0.016666666666666666
-1.505412221 88.044090271 5.267149925 -1.512010574 -15.155079842 -0.928709924 1.613193154 8.264519691 -0.141736001 0.897275984 0.626207054 -0.330668032 -2.286504269 8.65685463 1.534362078 -1.538427114 6.019808292 0.850350142 1.712004066 11.345486641 1.385190248 -0.253455967 -0.474456042 0.944876134 -0.886665165 -20.170843124 -0.52206409 -0.060477011 0.130826533 14.467654228 48.973770142 49.217334747 25.451189041 -0.636095881 -9.455910683 29.654520035 9.036829948 -7.607430458 -8.467176437 -28.031097412 36.793731689 11.444735527 17.731906891 12.118323326 -19.903707504 11.764216423 9.050844193 -13.307366371 18.085388184 0.034830339 -7.81187439 11.295543671 0.150209993 0.257141173 11.066168785 0.142575964 0.193040162 16.87200737 0.013317161 -9.03013134 10.400298119 0.058586989 0.103782199 10.500639915 0.054276966 0.08110819 16.806430817 0.021212753 -9.284873962 10.769885063 -0.110372096 -0.171599805 10.811758995 -0.068277083 -0.119856842 15.324962616 -0.027094081 -10.057340622 10.592977524 -0.323580146 -0.635305762 10.413462639 -0.272784144 -0.496825874 2.149771214 0.10241662 -7.98729229 -62.076831818 21.226808548 -7.84595108 -1.696454763 -7.691923618 -37.669212341 2.81034112 -19.016170502 20.311460495 29.795772552 36.200466156 -11.926514626 -15.331849098 10.991317749 17.259469986 -10.299068451 8.156270027 11.675642014 -11.619504929 0.031833272 10.797395706 -8.512606621 -0.140266106 0.380886823 -8.405421257 -0.134573117 0.363605827 -10.824127197 0.021174654 11.122229576 -7.84887886 -0.054671068 0.163230851 -7.805932045 -0.03769106 0.115221888 -11.949860573 -0.000550044 11.258745193 -8.505684853 0.081441998 -0.169934139 -8.428186417 0.05672 -0.164959148 -12.893148422 0.052718502 10.675082207 -8.977107048 0.184372991 -0.509064198 -9.00809288 0.15718399 -0.352445096 0.645623088 16.040082932 -4.27504158 -0.023531992 9.917289734 -0.721644163 -1.109119177 15.768803596 -6.51290369 -0.337818146 -18.080957413 0.973299086 4.453598499 12.277553558 -5.001982212 0.044549014 16.470504761 0.661755085 -0.63208878 12.569355965 5.323243618 0.690051258 -19.94818306 -0.501166046 
-1.497484922 88.033279419 5.317358017 -1.515114784 -15.189673424 -0.970118701 1.605099797 8.270860672 -0.141784921 0.86204809 0.648799062 -0.326258987 -2.262853861 8.728960991 1.468561053 -1.532594204 6.016903877 0.826762259 1.768321991 11.353178024 1.426849246 -0.250799 -0.492131025 1.017476082 -0.884267092 -20.17206955 -0.503811061 -0.005701226 0.160719857 14.399609566 49.255222321 49.078277588 25.192077637 -0.615186572 -9.479540825 29.552057266 8.753492355 -7.89703083 -8.433772087 -28.037345886 36.788845062 11.447439194 17.720588684 12.113325119 -19.891262054 11.761539459 9.049263 -13.30437851 18.02135849 0.036538422 -7.815593243 11.322236061 0.145791993 0.245519236 11.093553543 0.138147995 0.18214421 16.79057312 0.013937428 -9.02357769 10.423855782 0.05667996 0.099452175 10.518324852 0.052935962 0.077036195 16.715593338 0.020751396 -9.249833107 10.768362999 -0.107693098 -0.163851857 10.80772686 -0.066483073 -0.114479885 15.221305847 -0.028486479 -10.006849289 10.572993279 -0.314803064 -0.613068938 10.392111778 -0.265874088 -0.477612823 2.051622629 0.105418615 -7.993360043 -62.307239532 21.184904099 -7.72268343 -1.724950075 -7.593365669 -37.591743469 2.903877497 -19.352115631 20.25938797 29.789447784 36.204734802 -11.926345825 -15.334964752 10.992876053 17.262903214 -10.302391052 8.158363342 11.679351807 -11.673439026 0.030902551 10.815852165 -8.513207436 -0.135572121 0.361961812 -8.407240868 -0.130399093 0.346907794 -10.885372162 0.020884264 11.138272285 -7.855642319 -0.052649066 0.155488864 -7.812441349 -0.036165055 0.109096885 -12.062977791 0.00091215 11.243491173 -8.526763916 0.077938005 -0.15915215 -8.44382 0.054525975 -0.157143116 -13.021678925 0.055542469 10.654864311 -9.001270294 0.175732106 -0.472217083 -9.02630806 0.150300011 -0.326255083 0.610554039 16.106170654 -4.201747894 -0.024269991 9.904247284 -0.7233392 -1.113384962 15.716294289 -6.433523655 -0.338714987 -18.078624725 0.973896205 4.43396759 12.322885513 -4.966692448 0.043219015 16.510753632 0.660249054 -0.628335476 12.534888268 5.403437138 0.689641237 -19.949064255 -0.496003002 
-1.488726258 88.02368927 5.366801739 -1.516217232 -15.21962738 -1.005340576 1.596666098 8.277756691 -0.141954973 0.82971102 0.672236085 -0.32269001 -2.238907337 8.797027588 1.405401945 -1.527866244 6.016971588 0.802952111 1.821579933 11.351149559 1.462680936 -0.249937013 -0.509542048 1.080119848 -0.878747106 -20.168132782 -0.484160036 0.049827836 0.18906261 14.33313179 49.552719116 48.923801422 24.900712967 -0.592492878 -9.496338844 29.458776474 8.494321823 -8.198293686 -8.410234451 -28.043884277 36.783664703 11.450315475 17.708501816 12.107984543 -19.877967834 11.75831604 9.047363281 -13.300802231 17.958492279 0.038040102 -7.824063778 11.344778061 0.141312957 0.234500214 11.116415024 0.133570969 0.171891198 16.708711624 0.014473918 -9.022074699 10.4442873 0.054774962 0.095304199 10.533432007 0.051570956 0.073128194 16.625732422 0.020369438 -9.221003532 10.766728401 -0.104895107 -0.156458825 10.803427696 -0.064624071 -0.10938783 15.125712395 -0.029577814 -9.965973854 10.556350708 -0.305673152 -0.591345906 10.374401093 -0.258650243 -0.458698958 1.960397482 0.10902448 -8.002924919 -62.534137726 21.183340073 -7.579494953 -1.748741269 -7.482685089 -37.525260925 3.001281738 -19.703620911 20.210950851 29.78253746 36.209274292 -11.925946236 -15.339126587 10.99495697 17.267501831 -10.306127548 8.160726547 11.683532715 -11.726573944 0.03003405 10.83399868 -8.514045715 -0.131000131 0.344238937 -8.408698082 -0.126317099 0.331335843 -10.946214676 0.02064478 11.153548241 -7.862000465 -0.050723068 0.148189873 -7.819416523 -0.034705058 0.10339886 -12.174712181 0.002230697 11.224899292 -8.547574043 0.074525982 -0.148992136 -8.459841728 0.052368984 -0.149755105 -13.148967743 0.057963554 10.628783226 -9.024956703 0.167253062 -0.437415123 -9.043916702 0.143519029 -0.301909178 0.575005054 16.169721603 -4.135502338 -0.024967993 9.885052681 -0.725309134 -1.110781908 15.66852951 -6.36449194 -0.340281993 -18.077095032 0.975453138 4.415261269 12.362324715 -4.929620743 0.041905005 16.551118851 0.65841198 -0.62227273 12.504367828 5.46882391 0.687674105 -19.952310562 -0.491160184 
-1.479305506 88.015380859 5.415039062 -1.515564203 -15.244017601 -1.035030484 1.587542176 8.284070969 -0.142280996 0.80085814 0.694988132 -0.320037991 -2.21490407 8.86001873 1.345052958 -1.524424314 6.019624233 0.778971195 1.874591947 11.343127251 1.490259051 -0.250474095 -0.525431037 1.132455945 -0.870426118 -20.160852432 -0.463751018 0.106174208 0.215520814 14.269166946 49.848480225 48.762947083 24.591768265 -0.568730354 -9.507377625 29.375574112 8.269089699 -8.500741959 -8.39696312 -28.0489254 36.778938293 11.452648163 17.698534012 12.103586197 -19.867015839 11.756355286 9.046195984 -13.298623085 17.906057358 0.039385114 -7.836893559 11.365255356 0.136838004 0.22413224 11.136967659 0.128924951 0.162348241 16.637241364 0.014944668 -9.025053024 10.463999748 0.052892964 0.091387212 10.54823494 0.050205961 0.069424197 16.548646927 0.020071579 -9.197515488 10.768188477 -0.102034092 -0.149484843 10.802196503 -0.062718086 -0.104600839 15.048871994 -0.030406509 -9.932981491 10.546505928 -0.296341091 -0.570466936 10.363822937 -0.251244187 -0.440396965 1.87499392 0.113383196 -8.015357018 -62.745880127 21.217018127 -7.424520493 -1.767235518 -7.365774155 -37.473011017 3.086496115 -20.058132172 20.166078568 29.774158478 36.214252472 -11.925065994 -15.345533371 10.998138428 17.274585724 -10.311107635 8.163858414 11.68908596 -11.783855438 0.029184332 10.852754593 -8.516693115 -0.126637071 0.328016877 -8.41122818 -0.122419082 0.317105889 -11.011359215 0.020471038 11.169187546 -7.869757652 -0.048918057 0.141487852 -7.828411102 -0.03333905 0.098220855 -12.288722038 0.003415735 11.205668449 -8.570336342 0.071268983 -0.13967815 -8.478647232 0.050310001 -0.142942101 -13.278306961 0.060021795 10.600420952 -9.051099777 0.159149021 -0.405463129 -9.06411171 0.137025997 -0.279835075 0.540237069 16.229455948 -4.076132774 -0.025627997 9.861394882 -0.727549136 -1.102511168 15.625531197 -6.305809975 -0.342415184 -18.076379776 0.977797925 4.397899151 12.396118164 -4.890911102 0.040672004 16.589193344 0.656215072 -0.614663005 12.478550911 5.519107819 0.684416234 -19.957572937 -0.486568123 
